# xmcd CD database file
# Copyright (C) 1993-1998 Ti Kan
# 
# Track frame offsets:
# 182
# 18640
# 40082
# 54210
# 71252
# 90700
# 106555
# 124977
# 142307
# 160217
# 
# Disc length: 2395 seconds
# 
# Revision: 0
# Processed by: cddbd v1.5.1PL2 Copyright (c) Steve Scherf et al.
# Submitted via: SuperSonic v3.01
# 
DISCID=8009590a
DTITLE=Mikaila - This Little Light
DYEAR=1900
DGENRE=
TTITLE0=Not To Far From Here
TTITLE1=Send Each One An Angel
TTITLE2=A Little Belief
TTITLE3=The Raven And The Dove
TTITLE4=True Colors
TTITLE5=This Little Light
TTITLE6=The Lord Sent A Child
TTITLE7=Everything Is Beautifull
TTITLE8=Big Enough God
TTITLE9=What If.........
EXTD=
EXTT0=
EXTT1=
EXTT2=
EXTT3=
EXTT4=
EXTT5=
EXTT6=
EXTT7=
EXTT8=
EXTT9=
PLAYORDER=
